<mxfile host="app.diagrams.net" agent="Mozilla/5.0 (X11; Linux x86_64) AppleWebKit/537.36 (KHTML, like Gecko) Chrome/133.0.0.0 Safari/537.36" version="26.1.2">
  <diagram name="Page-1" id="edf60f1a-56cd-e834-aa8a-f176f3a09ee4">
    <mxGraphModel dx="939" dy="530" grid="1" gridSize="10" guides="1" tooltips="1" connect="1" arrows="1" fold="1" page="1" pageScale="1" pageWidth="1100" pageHeight="850" background="none" math="0" shadow="0">
      <root>
        <mxCell id="0" />
        <mxCell id="1" parent="0" />
        <mxCell id="60e70716793133e9-34" value="Yes" style="edgeStyle=orthogonalEdgeStyle;rounded=0;html=1;labelBackgroundColor=none;startSize=5;endArrow=classicThin;endFill=1;endSize=5;jettySize=auto;orthogonalLoop=1;strokeWidth=1;fontFamily=Verdana;fontSize=8" parent="1" source="60e70716793133e9-7" target="60e70716793133e9-8" edge="1">
          <mxGeometry x="-0.6667" y="10" relative="1" as="geometry">
            <mxPoint as="offset" />
          </mxGeometry>
        </mxCell>
        <mxCell id="60e70716793133e9-7" value="New&amp;nbsp;&lt;div&gt;template&amp;nbsp;&lt;/div&gt;&lt;div&gt;needed?&lt;/div&gt;" style="rhombus;whiteSpace=wrap;html=1;rounded=0;shadow=1;labelBackgroundColor=none;strokeWidth=1;fontFamily=Verdana;fontSize=8;align=center;" parent="1" vertex="1">
          <mxGeometry x="390" y="220" width="100" height="60" as="geometry" />
        </mxCell>
        <mxCell id="60e70716793133e9-8" value="Create work&amp;nbsp;&lt;div&gt;order template&lt;/div&gt;" style="rounded=1;whiteSpace=wrap;html=1;shadow=1;labelBackgroundColor=none;strokeWidth=1;fontFamily=Verdana;fontSize=8;align=center;" parent="1" vertex="1">
          <mxGeometry x="550" y="230" width="100" height="40" as="geometry" />
        </mxCell>
        <mxCell id="60e70716793133e9-10" value="calculate Impedance&lt;div&gt;call lib_sie_tri_solver_normal_I&lt;/div&gt;" style="whiteSpace=wrap;html=1;rounded=0;shadow=1;labelBackgroundColor=none;strokeWidth=1;fontFamily=Verdana;fontSize=8;align=center;" parent="1" vertex="1">
          <mxGeometry x="350" y="410" width="120" height="40" as="geometry" />
        </mxCell>
        <mxCell id="zDwNnAJiz61nvJDHIgVN-12" value="" style="edgeStyle=orthogonalEdgeStyle;rounded=0;orthogonalLoop=1;jettySize=auto;html=1;" edge="1" parent="1" source="60e70716793133e9-11" target="zDwNnAJiz61nvJDHIgVN-2">
          <mxGeometry relative="1" as="geometry" />
        </mxCell>
        <mxCell id="60e70716793133e9-11" value="Check &lt;b&gt;calc_p(6)&lt;/b&gt; value" style="whiteSpace=wrap;html=1;rounded=0;shadow=1;labelBackgroundColor=none;strokeWidth=1;fontFamily=Verdana;fontSize=8;align=center;spacing=6;" parent="1" vertex="1">
          <mxGeometry x="190" y="310" width="120" height="40" as="geometry" />
        </mxCell>
        <mxCell id="60e70716793133e9-12" value="FIeld &amp;amp;Scattering&lt;div&gt;call lib_sie_tri_solver_normal_II&lt;/div&gt;" style="whiteSpace=wrap;html=1;rounded=0;shadow=1;labelBackgroundColor=none;strokeWidth=1;fontFamily=Verdana;fontSize=8;align=center;spacing=6;" parent="1" vertex="1">
          <mxGeometry x="350" y="530" width="120" height="40" as="geometry" />
        </mxCell>
        <mxCell id="60e70716793133e9-49" style="edgeStyle=orthogonalEdgeStyle;rounded=0;html=1;labelBackgroundColor=none;startSize=5;endArrow=classicThin;endFill=1;endSize=5;jettySize=auto;orthogonalLoop=1;strokeWidth=1;fontFamily=Verdana;fontSize=8" parent="1" source="60e70716793133e9-20" target="60e70716793133e9-22" edge="1">
          <mxGeometry relative="1" as="geometry" />
        </mxCell>
        <mxCell id="60e70716793133e9-53" style="edgeStyle=orthogonalEdgeStyle;rounded=0;html=1;labelBackgroundColor=none;startSize=5;endArrow=classicThin;endFill=1;endSize=5;jettySize=auto;orthogonalLoop=1;strokeWidth=1;fontFamily=Verdana;fontSize=8" parent="1" source="60e70716793133e9-20" target="60e70716793133e9-27" edge="1">
          <mxGeometry relative="1" as="geometry">
            <Array as="points">
              <mxPoint x="510" y="920" />
              <mxPoint x="680" y="920" />
            </Array>
          </mxGeometry>
        </mxCell>
        <mxCell id="60e70716793133e9-20" value="Ship materials&amp;nbsp;&lt;div&gt;to vendor&lt;/div&gt;" style="rounded=1;whiteSpace=wrap;html=1;shadow=1;labelBackgroundColor=none;strokeWidth=1;fontFamily=Verdana;fontSize=8;align=center;" parent="1" vertex="1">
          <mxGeometry x="450" y="850" width="120" height="40" as="geometry" />
        </mxCell>
        <mxCell id="60e70716793133e9-58" style="edgeStyle=orthogonalEdgeStyle;rounded=0;html=1;labelBackgroundColor=none;startSize=5;endArrow=classicThin;endFill=1;endSize=5;jettySize=auto;orthogonalLoop=1;strokeWidth=1;fontFamily=Verdana;fontSize=8" parent="1" source="60e70716793133e9-22" target="60e70716793133e9-24" edge="1">
          <mxGeometry relative="1" as="geometry" />
        </mxCell>
        <mxCell id="60e70716793133e9-22" value="Perform work&amp;nbsp;&lt;div&gt;order step&lt;/div&gt;" style="shape=trapezoid;whiteSpace=wrap;html=1;rounded=0;shadow=1;labelBackgroundColor=none;strokeWidth=1;fontFamily=Verdana;fontSize=8;align=center;flipV=1;" parent="1" vertex="1">
          <mxGeometry x="450" y="940" width="120" height="60" as="geometry" />
        </mxCell>
        <mxCell id="60e70716793133e9-55" style="edgeStyle=orthogonalEdgeStyle;rounded=0;html=1;labelBackgroundColor=none;startSize=5;endArrow=classicThin;endFill=1;endSize=5;jettySize=auto;orthogonalLoop=1;strokeWidth=1;fontFamily=Verdana;fontSize=8" parent="1" edge="1">
          <mxGeometry relative="1" as="geometry">
            <mxPoint x="340.0000000000001" y="1080" as="sourcePoint" />
            <mxPoint x="340" y="1120" as="targetPoint" />
          </mxGeometry>
        </mxCell>
        <mxCell id="60e70716793133e9-59" style="edgeStyle=orthogonalEdgeStyle;rounded=0;html=1;labelBackgroundColor=none;startSize=5;endArrow=classicThin;endFill=1;endSize=5;jettySize=auto;orthogonalLoop=1;strokeWidth=1;fontFamily=Verdana;fontSize=8" parent="1" source="60e70716793133e9-24" target="60e70716793133e9-26" edge="1">
          <mxGeometry relative="1" as="geometry" />
        </mxCell>
        <mxCell id="60e70716793133e9-24" value="Receive product&amp;nbsp;&lt;div&gt;from vendor&lt;/div&gt;" style="rounded=1;whiteSpace=wrap;html=1;shadow=1;labelBackgroundColor=none;strokeWidth=1;fontFamily=Verdana;fontSize=8;align=center;" parent="1" vertex="1">
          <mxGeometry x="450" y="1040" width="120" height="40" as="geometry" />
        </mxCell>
        <mxCell id="60e70716793133e9-56" style="edgeStyle=orthogonalEdgeStyle;rounded=0;html=1;labelBackgroundColor=none;startSize=5;endArrow=classicThin;endFill=1;endSize=5;jettySize=auto;orthogonalLoop=1;strokeWidth=1;fontFamily=Verdana;fontSize=8" parent="1" edge="1">
          <mxGeometry relative="1" as="geometry">
            <mxPoint x="340.0000000000001" y="1160" as="sourcePoint" />
            <mxPoint x="340" y="1200" as="targetPoint" />
          </mxGeometry>
        </mxCell>
        <mxCell id="60e70716793133e9-60" value="No" style="edgeStyle=orthogonalEdgeStyle;rounded=0;html=1;labelBackgroundColor=none;startSize=5;endArrow=classicThin;endFill=1;endSize=5;jettySize=auto;orthogonalLoop=1;strokeWidth=1;fontFamily=Verdana;fontSize=8" parent="1" source="60e70716793133e9-26" target="60e70716793133e9-29" edge="1">
          <mxGeometry x="0.2" y="14" relative="1" as="geometry">
            <mxPoint x="-24" y="-10" as="offset" />
          </mxGeometry>
        </mxCell>
        <mxCell id="60e70716793133e9-61" value="Yes" style="edgeStyle=orthogonalEdgeStyle;rounded=0;html=1;labelBackgroundColor=none;startSize=5;endArrow=classicThin;endFill=1;endSize=5;jettySize=auto;orthogonalLoop=1;strokeWidth=1;fontFamily=Verdana;fontSize=8" parent="1" source="60e70716793133e9-26" target="60e70716793133e9-27" edge="1">
          <mxGeometry x="-0.6667" y="10" relative="1" as="geometry">
            <mxPoint as="offset" />
          </mxGeometry>
        </mxCell>
        <mxCell id="60e70716793133e9-26" value="Only partial&amp;nbsp;&lt;div&gt;quality&amp;nbsp;&lt;/div&gt;&lt;div&gt;received?&lt;/div&gt;" style="rhombus;whiteSpace=wrap;html=1;rounded=0;shadow=1;labelBackgroundColor=none;strokeWidth=1;fontFamily=Verdana;fontSize=8;align=center;" parent="1" vertex="1">
          <mxGeometry x="460" y="1110" width="100" height="60" as="geometry" />
        </mxCell>
        <mxCell id="60e70716793133e9-27" value="Create work&amp;nbsp;&lt;div&gt;order backorder&lt;/div&gt;" style="whiteSpace=wrap;html=1;rounded=0;shadow=1;labelBackgroundColor=none;strokeWidth=1;fontFamily=Verdana;fontSize=8;align=center;" parent="1" vertex="1">
          <mxGeometry x="620" y="1120" width="120" height="40" as="geometry" />
        </mxCell>
        <mxCell id="60e70716793133e9-57" style="edgeStyle=orthogonalEdgeStyle;rounded=0;html=1;labelBackgroundColor=none;startSize=5;endArrow=classicThin;endFill=1;endSize=5;jettySize=auto;orthogonalLoop=1;strokeWidth=1;fontFamily=Verdana;fontSize=8" parent="1" target="60e70716793133e9-30" edge="1">
          <mxGeometry relative="1" as="geometry">
            <mxPoint x="340" y="1240" as="sourcePoint" />
          </mxGeometry>
        </mxCell>
        <mxCell id="60e70716793133e9-62" style="edgeStyle=orthogonalEdgeStyle;rounded=0;html=1;labelBackgroundColor=none;startSize=5;endArrow=classicThin;endFill=1;endSize=5;jettySize=auto;orthogonalLoop=1;strokeWidth=1;fontFamily=Verdana;fontSize=8" parent="1" source="60e70716793133e9-29" edge="1">
          <mxGeometry relative="1" as="geometry">
            <Array as="points">
              <mxPoint x="430" y="1220" />
              <mxPoint x="430" y="920" />
              <mxPoint x="340" y="920" />
            </Array>
            <mxPoint x="340.0000000000001" y="940" as="targetPoint" />
          </mxGeometry>
        </mxCell>
        <mxCell id="60e70716793133e9-29" value="Pay vendor invoice" style="rounded=1;whiteSpace=wrap;html=1;shadow=1;labelBackgroundColor=none;strokeWidth=1;fontFamily=Verdana;fontSize=8;align=center;" parent="1" vertex="1">
          <mxGeometry x="450" y="1200" width="120" height="40" as="geometry" />
        </mxCell>
        <mxCell id="60e70716793133e9-30" value="End" style="strokeWidth=1;html=1;shape=mxgraph.flowchart.terminator;whiteSpace=wrap;rounded=0;shadow=1;labelBackgroundColor=none;fontFamily=Verdana;fontSize=8;align=center;" parent="1" vertex="1">
          <mxGeometry x="310" y="1290" width="60" height="30" as="geometry" />
        </mxCell>
        <mxCell id="zDwNnAJiz61nvJDHIgVN-25" value="" style="edgeStyle=orthogonalEdgeStyle;rounded=0;orthogonalLoop=1;jettySize=auto;html=1;" edge="1" parent="1" source="dd23iSU-7GwLA_ETjXJJ-1" target="zDwNnAJiz61nvJDHIgVN-24">
          <mxGeometry relative="1" as="geometry" />
        </mxCell>
        <mxCell id="dd23iSU-7GwLA_ETjXJJ-1" value="Start" style="strokeWidth=1;html=1;shape=mxgraph.flowchart.terminator;whiteSpace=wrap;rounded=0;shadow=1;labelBackgroundColor=none;fontFamily=Verdana;fontSize=8;align=center;" parent="1" vertex="1">
          <mxGeometry x="220" y="150" width="60" height="30" as="geometry" />
        </mxCell>
        <mxCell id="zDwNnAJiz61nvJDHIgVN-7" value="" style="edgeStyle=orthogonalEdgeStyle;rounded=0;orthogonalLoop=1;jettySize=auto;html=1;" edge="1" parent="1" source="zDwNnAJiz61nvJDHIgVN-2" target="60e70716793133e9-10">
          <mxGeometry relative="1" as="geometry" />
        </mxCell>
        <mxCell id="zDwNnAJiz61nvJDHIgVN-9" value="Yes" style="edgeLabel;html=1;align=center;verticalAlign=middle;resizable=0;points=[];" vertex="1" connectable="0" parent="zDwNnAJiz61nvJDHIgVN-7">
          <mxGeometry x="0.0032" y="2" relative="1" as="geometry">
            <mxPoint as="offset" />
          </mxGeometry>
        </mxCell>
        <mxCell id="zDwNnAJiz61nvJDHIgVN-14" value="" style="edgeStyle=orthogonalEdgeStyle;rounded=0;orthogonalLoop=1;jettySize=auto;html=1;" edge="1" parent="1" source="zDwNnAJiz61nvJDHIgVN-2" target="zDwNnAJiz61nvJDHIgVN-13">
          <mxGeometry relative="1" as="geometry" />
        </mxCell>
        <mxCell id="zDwNnAJiz61nvJDHIgVN-19" value="No" style="edgeLabel;html=1;align=center;verticalAlign=middle;resizable=0;points=[];" vertex="1" connectable="0" parent="zDwNnAJiz61nvJDHIgVN-14">
          <mxGeometry x="-0.1959" y="1" relative="1" as="geometry">
            <mxPoint as="offset" />
          </mxGeometry>
        </mxCell>
        <mxCell id="zDwNnAJiz61nvJDHIgVN-2" value="&lt;font style=&quot;font-size: 8px;&quot; face=&quot;Verdana&quot;&gt;eq.1&lt;/font&gt;" style="rhombus;whiteSpace=wrap;html=1;" vertex="1" parent="1">
          <mxGeometry x="200" y="400" width="100" height="60" as="geometry" />
        </mxCell>
        <mxCell id="zDwNnAJiz61nvJDHIgVN-15" value="" style="edgeStyle=orthogonalEdgeStyle;rounded=0;orthogonalLoop=1;jettySize=auto;html=1;" edge="1" parent="1" source="zDwNnAJiz61nvJDHIgVN-13" target="60e70716793133e9-12">
          <mxGeometry relative="1" as="geometry" />
        </mxCell>
        <mxCell id="zDwNnAJiz61nvJDHIgVN-16" value="Yes" style="edgeLabel;html=1;align=center;verticalAlign=middle;resizable=0;points=[];" vertex="1" connectable="0" parent="zDwNnAJiz61nvJDHIgVN-15">
          <mxGeometry x="-0.1098" y="-1" relative="1" as="geometry">
            <mxPoint as="offset" />
          </mxGeometry>
        </mxCell>
        <mxCell id="zDwNnAJiz61nvJDHIgVN-18" value="" style="edgeStyle=orthogonalEdgeStyle;rounded=0;orthogonalLoop=1;jettySize=auto;html=1;" edge="1" parent="1" source="zDwNnAJiz61nvJDHIgVN-13" target="zDwNnAJiz61nvJDHIgVN-17">
          <mxGeometry relative="1" as="geometry" />
        </mxCell>
        <mxCell id="zDwNnAJiz61nvJDHIgVN-20" value="No" style="edgeLabel;html=1;align=center;verticalAlign=middle;resizable=0;points=[];" vertex="1" connectable="0" parent="zDwNnAJiz61nvJDHIgVN-18">
          <mxGeometry x="-0.2547" relative="1" as="geometry">
            <mxPoint as="offset" />
          </mxGeometry>
        </mxCell>
        <mxCell id="zDwNnAJiz61nvJDHIgVN-13" value="&lt;font style=&quot;font-size: 8px;&quot; face=&quot;Verdana&quot;&gt;eq.2&lt;/font&gt;" style="html=1;whiteSpace=wrap;aspect=fixed;shape=isoRectangle;" vertex="1" parent="1">
          <mxGeometry x="200" y="520" width="100" height="60" as="geometry" />
        </mxCell>
        <mxCell id="zDwNnAJiz61nvJDHIgVN-23" value="" style="edgeStyle=orthogonalEdgeStyle;rounded=0;orthogonalLoop=1;jettySize=auto;html=1;" edge="1" parent="1" source="zDwNnAJiz61nvJDHIgVN-17" target="zDwNnAJiz61nvJDHIgVN-21">
          <mxGeometry relative="1" as="geometry" />
        </mxCell>
        <mxCell id="zDwNnAJiz61nvJDHIgVN-17" value="&lt;font style=&quot;font-size: 8px;&quot; face=&quot;Verdana&quot;&gt;eq.3&lt;/font&gt;" style="html=1;whiteSpace=wrap;aspect=fixed;shape=isoRectangle;" vertex="1" parent="1">
          <mxGeometry x="200" y="640" width="100" height="60" as="geometry" />
        </mxCell>
        <mxCell id="zDwNnAJiz61nvJDHIgVN-21" value="Both Impedance &amp;amp; Field&lt;div&gt;call both I &amp;amp; II&lt;/div&gt;" style="whiteSpace=wrap;html=1;rounded=0;shadow=1;labelBackgroundColor=none;strokeWidth=1;fontFamily=Verdana;fontSize=8;align=center;spacing=6;" vertex="1" parent="1">
          <mxGeometry x="350" y="650" width="120" height="40" as="geometry" />
        </mxCell>
        <mxCell id="zDwNnAJiz61nvJDHIgVN-26" value="" style="edgeStyle=orthogonalEdgeStyle;rounded=0;orthogonalLoop=1;jettySize=auto;html=1;" edge="1" parent="1" source="zDwNnAJiz61nvJDHIgVN-24" target="60e70716793133e9-11">
          <mxGeometry relative="1" as="geometry" />
        </mxCell>
        <mxCell id="zDwNnAJiz61nvJDHIgVN-24" value="Initialize Parameters&amp;nbsp;&lt;div&gt;&amp;amp; Import Data&lt;/div&gt;" style="shape=parallelogram;perimeter=parallelogramPerimeter;whiteSpace=wrap;html=1;fixedSize=1;fontFamily=Verdana;fontSize=8;" vertex="1" parent="1">
          <mxGeometry x="200" y="220" width="100" height="50" as="geometry" />
        </mxCell>
      </root>
    </mxGraphModel>
  </diagram>
</mxfile>
